<svg id="eXfBkO7So1i1" xmlns="http://www.w3.org/2000/svg" xmlns:xlink="http://www.w3.org/1999/xlink" viewBox="0 0 50 50" shape-rendering="geometricPrecision" text-rendering="geometricPrecision" project-id="5227686bb72e4073b96190f85aa554bf" export-id="33984587182f402386a5958d8552f270" cached="false" width="50" height="50">
<style><![CDATA[
#eXfBkO7So1i1{pointer-events: all}#eXfBkO7So1i1:hover #eXfBkO7So1i2 {animation: eXfBkO7So1i2_c_o 400ms linear 1 normal forwards}@keyframes eXfBkO7So1i2_c_o { 0% {opacity: 0} 100% {opacity: 1}} #eXfBkO7So1i1:hover #eXfBkO7So1i4 {animation: eXfBkO7So1i4_c_o 400ms linear 1 normal forwards}@keyframes eXfBkO7So1i4_c_o { 0% {opacity: 0} 100% {opacity: 1}}
]]></style>
<ellipse id="eXfBkO7So1i2" rx="23.999712" ry="23.999712" transform="matrix(1.041679 0 0 1.041679 25 25)" opacity="0" fill="#6ce9ab" stroke-width="0"/><path d="M21.43108,37.92768c-1.58179,0-2.86409-1.59387-2.86409-3.56v-20.80539c0-.13505.00605-.26835.01783-.39949-.01179-.09487-.01783-.1911-.01783-.28846v-.00796c0-.74455.35313-1.42274.932-1.93208.50934-.57887,1.18754-.932,1.93208-.932h.00796c.09737,0,.1936.00604.28846.01783.13114-.01178.26444-.01783.39949-.01783h20.8054c1.96613,0,3.56,1.2823,3.56,2.86409v.00796c0,1.58179-1.59387,2.86409-3.56,2.86409h-18.62926v18.62926c0,1.96613-1.2823,3.56-2.86409,3.56l-.00795-.00002Z" transform="matrix(.461365 0.461365-.461365 0.461365 21.048552 2.446703)" fill="#fff" stroke-width="0"/><path id="eXfBkO7So1i4" d="M21.43108,37.92768c-1.58179,0-2.86409-1.59387-2.86409-3.56v-20.80539c0-.13505.00605-.26835.01783-.39949-.01179-.09487-.01783-.1911-.01783-.28846v-.00796c0-.74455.35313-1.42274.932-1.93208.50934-.57887,1.18754-.932,1.93208-.932h.00796c.09737,0,.1936.00604.28846.01783.13114-.01178.26444-.01783.39949-.01783h20.8054c1.96613,0,3.56,1.2823,3.56,2.86409v.00796c0,1.58179-1.59387,2.86409-3.56,2.86409h-18.62926v18.62926c0,1.96613-1.2823,3.56-2.86409,3.56l-.00795-.00002Z" transform="matrix(.461365 0.461365-.461365 0.461365 21.048552 2.446703)" opacity="0" fill="#120e1b" stroke-width="0"/></svg>
