<svg width="24" height="24" viewBox="0 0 24 24" fill="none" xmlns="http://www.w3.org/2000/svg">
<g clip-path="url(#clip0_2279_704)">
<g filter="url(#filter0_d_2279_704)">
<path fill-rule="evenodd" clip-rule="evenodd" d="M17.5952 20.9799H10.6227L10.5827 21C10.0925 21 9.69234 20.8993 9.12213 20.5468C8.40187 19.9124 7.99173 19.1067 7.99173 18.2003V11.2515C7.99173 11.0364 8.04183 10.878 8.1024 10.6865C8.11838 10.636 8.13508 10.5832 8.15178 10.5264C8.23728 10.2587 8.38593 10.0908 8.53776 9.9193C8.54581 9.91021 8.55387 9.9011 8.56193 9.89197C8.60195 9.84666 8.62195 9.80134 8.64196 9.75602C8.66197 9.7107 8.68197 9.66538 8.72199 9.62006C8.9103 9.36888 9.08088 9.13555 9.25146 8.90221C9.44336 8.63971 9.63526 8.37721 9.8524 8.08931L11.563 5.9241C11.6115 5.86234 11.6607 5.7996 11.7105 5.73606C12.1641 5.15717 12.6698 4.51187 13.1836 3.94017C13.2405 3.82569 13.3252 3.74736 13.4203 3.65952C13.4758 3.60827 13.5348 3.55378 13.5937 3.48698C13.6761 3.44551 13.74 3.37735 13.8044 3.30861C13.8651 3.24381 13.9262 3.17849 14.0039 3.13451C14.414 2.8626 14.7442 3.04387 15.0643 3.31578C15.3844 3.48698 15.5545 3.76896 15.6345 4.12144C15.7509 4.57547 15.6557 5.08274 15.5643 5.5697C15.53 5.75242 15.4963 5.93227 15.4744 6.10537C15.457 6.20859 15.44 6.30879 15.4232 6.40722C15.3534 6.81778 15.2889 7.19747 15.2243 7.63613L15.0643 8.8144C14.9742 9.34815 15.3844 9.89197 15.8746 9.89197H19.6859C19.7988 9.89197 19.9211 9.88447 20.0485 9.87666C20.5644 9.84503 21.1635 9.80829 21.5566 10.2444C21.8067 10.5164 21.9668 10.9695 21.9668 11.322C22.0468 11.8558 21.9668 12.3996 21.8867 12.8528L21.876 12.8945C21.7195 13.5054 21.5611 14.1237 21.3165 14.6554C21.2306 14.879 21.1344 15.1154 21.0348 15.3602C20.8562 15.799 20.6668 16.2645 20.5062 16.73C20.2168 17.5095 19.9692 18.1572 19.6991 18.8638C19.5959 19.134 19.4893 19.4129 19.3758 19.7109C19.2158 20.0735 18.8857 20.5267 18.5655 20.7079C18.2454 20.8892 17.9153 20.9799 17.5952 20.9799ZM3 18.9323C3 19.5487 3.70025 20.0834 4.50054 20.0834C5.40087 20.0834 6.00108 19.5487 6.00108 18.9323V12.1709C6.00108 11.5545 5.30083 11.0198 4.50054 11.0198C3.70025 11.0198 3 11.5545 3 12.1709V18.9323Z" fill="white"/>
</g>
</g>
<defs>
<filter id="filter0_d_2279_704" x="1.2" y="1.2" width="24.5999" height="23.6" filterUnits="userSpaceOnUse" color-interpolation-filters="sRGB">
<feFlood flood-opacity="0" result="BackgroundImageFix"/>
<feColorMatrix in="SourceAlpha" type="matrix" values="0 0 0 0 0 0 0 0 0 0 0 0 0 0 0 0 0 0 127 0" result="hardAlpha"/>
<feOffset dx="1" dy="1"/>
<feGaussianBlur stdDeviation="1.4"/>
<feComposite in2="hardAlpha" operator="out"/>
<feColorMatrix type="matrix" values="0 0 0 0 0.0666667 0 0 0 0 0.054902 0 0 0 0 0.105882 0 0 0 1 0"/>
<feBlend mode="normal" in2="BackgroundImageFix" result="effect1_dropShadow_2279_704"/>
<feBlend mode="normal" in="SourceGraphic" in2="effect1_dropShadow_2279_704" result="shape"/>
</filter>
<clipPath id="clip0_2279_704">
<rect width="24" height="24" fill="white"/>
</clipPath>
</defs>
</svg>
