<svg width="96" height="96" viewBox="0 0 96 96" fill="none" xmlns="http://www.w3.org/2000/svg">
<g opacity="0.8">
<g filter="url(#filter0_d_2280_685)">
<path d="M56.008 25.943V71.057C56.008 76.4321 49.986 79.7566 45.2132 77.0224L31.2152 64.4701C30.6386 63.9419 29.8378 63.6312 29.037 63.6312H22.4064C18.8829 63.6312 16 60.8349 16 57.4171V39.1168C16 35.668 18.8829 32.9028 22.4064 32.9028H29.0691C29.8699 32.9028 30.6066 32.6231 31.2152 32.126L45.2132 19.9776C49.986 17.2434 56.008 20.5679 56.008 25.943Z" fill="#F7F7F7"/>
<path d="M64.8488 60.9281C64.4004 60.9281 63.952 60.8038 63.5676 60.5552C62.4464 59.8717 62.1261 58.4114 62.8308 57.3239C62.8308 57.2929 65.7778 52.8188 65.7778 48.5311C65.7778 44.2434 62.8629 39.6761 62.8308 39.6139C62.1261 38.5265 62.4785 37.0972 63.5996 36.4137C64.7207 35.7301 66.1942 36.0408 66.8989 37.1283C67.0591 37.3458 70.5826 42.8763 70.5826 48.5311C70.5826 54.1858 67.027 59.6231 66.8989 59.8406C66.4505 60.5242 65.6817 60.897 64.8809 60.897L64.8488 60.9281Z" fill="#F7F7F7"/>
<path d="M71.6076 67.1421C71.1271 67.1421 70.6146 66.9868 70.1982 66.7071C69.1411 65.9615 68.8849 64.5012 69.6537 63.4448C69.7177 63.3826 75.1952 55.9568 75.1952 48.6243C75.1952 41.2917 69.6857 33.5863 69.6537 33.5242C68.8849 32.4678 69.1732 31.0075 70.2623 30.2929C71.3514 29.5782 72.8569 29.8268 73.5936 30.8832C73.8498 31.256 80 39.9246 80 48.6553C80 57.3861 73.8178 65.8682 73.5616 66.21C73.0811 66.8314 72.3443 67.1732 71.6076 67.1732V67.1421Z" fill="#F7F7F7"/>
</g>
</g>
<defs>
<filter id="filter0_d_2280_685" x="13" y="18" width="74" height="69" filterUnits="userSpaceOnUse" color-interpolation-filters="sRGB">
<feFlood flood-opacity="0" result="BackgroundImageFix"/>
<feColorMatrix in="SourceAlpha" type="matrix" values="0 0 0 0 0 0 0 0 0 0 0 0 0 0 0 0 0 0 127 0" result="hardAlpha"/>
<feOffset dx="2" dy="4"/>
<feGaussianBlur stdDeviation="2.5"/>
<feComposite in2="hardAlpha" operator="out"/>
<feColorMatrix type="matrix" values="0 0 0 0 0.0666667 0 0 0 0 0.054902 0 0 0 0 0.105882 0 0 0 1 0"/>
<feBlend mode="normal" in2="BackgroundImageFix" result="effect1_dropShadow_2280_685"/>
<feBlend mode="normal" in="SourceGraphic" in2="effect1_dropShadow_2280_685" result="shape"/>
</filter>
</defs>
</svg>
